HIERARCHY
ROOT root
{
	OFFSET	0	13.1	24.9
	CHANNELS 6  Xposition Yposition Zposition Xrotation Yrotation Zrotation
	JOINT spine_1
	{
		OFFSET	0	9.99999	0
		CHANNELS 3  Xrotation Yrotation Zrotation
		JOINT spine_2
		{
			OFFSET	0	112	-10
			CHANNELS 3  Xrotation Yrotation Zrotation
			JOINT spine_3
			{
				OFFSET	0	206.5	19.3
				CHANNELS 3  Xrotation Yrotation Zrotation
				JOINT spine_4
				{
					OFFSET	0	110.4	14.6
					CHANNELS 3  Xrotation Yrotation Zrotation
					JOINT neck_1
					{
						OFFSET	0	71.8	-50.3
						CHANNELS 3  Xrotation Yrotation Zrotation
						JOINT neck_2
						{
							OFFSET	0	86.2	-25.8
							CHANNELS 3  Xrotation Yrotation Zrotation
							JOINT head_ee
							{
								OFFSET	0	179.8	-8.7
								CHANNELS 3  Xrotation Yrotation Zrotation
								End Site
								{
									OFFSET	1	0	0
								}
							}
						}
					}
					JOINT left_clavicle
					{
						OFFSET	-43.2	22.4	-70.8
						CHANNELS 3  Xrotation Yrotation Zrotation
						JOINT left_shoulder
						{
							OFFSET	-93.9	-5.79999	48.7
							CHANNELS 3  Xrotation Yrotation Zrotation
							JOINT left_elbow
							{
								OFFSET	-291.4	-30.8	15.2
								CHANNELS 3  Xrotation Yrotation Zrotation
								JOINT left_lowarm_twist
								{
									OFFSET	-110.7	-3.89999	13.6
									CHANNELS 3  Xrotation Yrotation Zrotation
									JOINT left_hand
									{
										OFFSET	-110.7	-3.89999	13.6
										CHANNELS 3  Xrotation Yrotation Zrotation
										JOINT left_ee
										{
											OFFSET	-80.8	-5.10001	12.1
											CHANNELS 3  Xrotation Yrotation Zrotation
											End Site
											{
												OFFSET	1	0	0
											}
										}
									}
								}
							}
						}
					}
					JOINT right_clavicle
					{
						OFFSET	43.2	22.4	-70.8
						CHANNELS 3  Xrotation Yrotation Zrotation
						JOINT right_shoulder
						{
							OFFSET	93.9	-5.79999	48.7
							CHANNELS 3  Xrotation Yrotation Zrotation
							JOINT right_elbow
							{
								OFFSET	291.4	-30.8	15.2
								CHANNELS 3  Xrotation Yrotation Zrotation
								JOINT right_lowarm_twist
								{
									OFFSET	110.7	-3.89999	13.6
									CHANNELS 3  Xrotation Yrotation Zrotation
									JOINT right_hand
									{
										OFFSET	110.7	-3.89999	13.6
										CHANNELS 3  Xrotation Yrotation Zrotation
										JOINT right_ee
										{
											OFFSET	80.8	-5.10001	12.1
											CHANNELS 3  Xrotation Yrotation Zrotation
											End Site
											{
												OFFSET	1	0	0
											}
										}
									}
								}
							}
						}
					}
				}
			}
		}
	}
	JOINT left_hip
	{
		OFFSET	-82.8	-127.5	0.300001
		CHANNELS 3  Xrotation Yrotation Zrotation
		JOINT left_knee
		{
			OFFSET	-28.2	-396.7	2.2
			CHANNELS 3  Xrotation Yrotation Zrotation
			JOINT left_ankle
			{
				OFFSET	-11.7	-411.3	35.4
				CHANNELS 3  Xrotation Yrotation Zrotation
				JOINT left_toes
				{
					OFFSET	0	-60	-88.6
					CHANNELS 3  Xrotation Yrotation Zrotation
					JOINT left_foot_ee
					{
						OFFSET	-22.5	-16.5	-42.2
						CHANNELS 3  Xrotation Yrotation Zrotation
						End Site
						{
							OFFSET	1	0	0
						}
					}
				}
			}
		}
	}
	JOINT right_hip
	{
		OFFSET	82.8	-127.5	0.300001
		CHANNELS 3  Xrotation Yrotation Zrotation
		JOINT right_knee
		{
			OFFSET	28.2	-396.7	2.2
			CHANNELS 3  Xrotation Yrotation Zrotation
			JOINT right_ankle
			{
				OFFSET	11.7	-411.3	35.4
				CHANNELS 3  Xrotation Yrotation Zrotation
				JOINT right_toes
				{
					OFFSET	0	-60	-88.6
					CHANNELS 3  Xrotation Yrotation Zrotation
					JOINT right_foot_ee
					{
						OFFSET	22.5	-16.5	-42.2
						CHANNELS 3  Xrotation Yrotation Zrotation
						End Site
						{
							OFFSET	1	0	0
						}
					}
				}
			}
		}
	}
}
MOTION
Frames: 5
Frame Time: 0.02
2547.57355842 758.334 -1513.8474733 169.880300061 81.00460804 -172.357844755 0.252701 0.320206 2.52678 0.256239 0.158824 2.54202 0.264832 -0.367535 2.52033 0.255969 0.0349833 2.54673 -17.713 14.5966 -16.042 -18.7835 36.7405 -9.09241 -0.0 0.0 -0.0 -4.37381 23.2675 -3.3387 -12.8314 -22.0518 57.4856 0.468994 -13.0795 0.0537648 12.799 0.272248 -1.6089 3.97784 -7.5677 24.3549 -0.0 0.0 -0.0 10.0853 5.10746 -20.0058 -3.56529 26.3752 -62.1625 1.33073 33.3913 -0.399144 44.6581 0.613458 5.52942 4.22575 -23.7543 -36.5239 0.0 0.0 0.0 4.07186 -5.79882 -5.36152 -31.3557 -0.0102413 4.75239 27.3317 14.7395 -3.63425 -26.0965 0.0 0.0 -0.0 0.0 -0.0 5.57776 0.974482 -6.55496 0.76264 0.0321545 0.112613 17.5562 11.8566 2.56535 -27.0785 0.0 0.0 0.0 0.0 0.0 
2528.63243064 761.659 -1502.48795976 170.833950093 78.9499801809 -172.914082348 0.369996 0.20661 2.40608 0.373215 0.0531322 2.41434 0.376648 -0.440128 2.3745 0.368784 -0.0597105 2.41419 -17.8828 14.5727 -16.0774 -18.9746 36.6747 -9.07726 -0.0 0.0 -0.0 -4.12681 23.8629 -2.85656 -13.5583 -21.6696 57.7035 0.43177 -12.0731 0.0456595 13.1075 0.274345 -1.64825 3.80259 -6.88557 23.378 -0.0 0.0 -0.0 10.0713 4.03594 -19.9529 -2.92324 25.7261 -60.2721 1.43267 35.3614 -0.456713 45.0712 0.638969 5.57571 4.25247 -22.4086 -36.5122 0.0 0.0 0.0 7.04426 -5.49417 -4.73979 -30.9975 0.00456972 4.69942 28.312 15.7703 -3.75566 -26.1211 0.0 0.0 -0.0 0.0 -0.0 3.94154 0.732463 -6.5737 0.220536 0.00914383 0.0326077 20.0725 11.9952 2.89886 -27.4911 0.0 0.0 0.0 0.0 0.0 
2513.25338492 764.149 -1510.12959166 171.000593565 80.891347542 -172.996415998 0.059018 0.235549 2.36 0.0621125 0.0849417 2.37019 0.0670617 -0.412585 2.33557 0.0594515 -0.0386554 2.3714 -17.9549 14.4121 -15.6977 -19.0385 36.1465 -8.76818 -0.0 0.0 -0.0 -3.75271 23.9652 -2.32137 -13.4233 -21.6064 58.5684 0.529774 -14.705 0.0683594 13.6916 0.277734 -1.72278 3.67306 -6.00969 22.8245 -0.0 0.0 -0.0 10.1815 3.2533 -20.165 -2.941 24.5586 -59.9696 1.59567 38.3217 -0.55448 45.45 0.66266 5.61801 4.24125 -20.0631 -35.9981 0.0 0.0 0.0 9.86565 -6.35537 -3.71796 -24.911 0.205116 3.78729 29.5564 16.1873 -3.89938 -26.1211 0.0 0.0 -0.0 0.0 -0.0 3.4475 0.674745 -6.58978 1.11621 0.0475708 0.164678 20.3305 11.1746 2.91809 -29.6513 0.0 0.0 0.0 0.0 0.0 
2490.74451301 764.277 -1526.86558411 -172.082552446 84.222181886 170.212994541 0.34626 0.0827012 2.22871 0.349021 -0.0592494 2.22946 0.347643 -0.513606 2.17033 0.341107 -0.164487 2.22417 -18.5666 14.7755 -14.9891 -19.8592 36.3191 -7.69058 -0.0 0.0 -0.0 -4.09265 23.0103 -3.00716 -11.8524 -22.4835 61.7812 0.685389 -18.7535 0.113181 14.0415 0.2794 -1.76745 3.62812 -5.48026 22.7316 -0.0 0.0 -0.0 10.1506 2.49279 -20.0744 -4.28606 23.5287 -59.834 1.69771 40.0603 -0.618966 45.5318 0.667818 5.62713 4.23793 -18.8619 -35.7249 0.0 0.0 0.0 14.4769 -6.0033 -2.30333 -17.8373 0.315111 2.70812 29.1786 16.3425 -3.85928 -27.1601 0.0 0.0 -0.0 0.0 -0.0 3.04257 0.42036 -6.4832 3.08599 0.139327 0.452962 19.0816 10.8023 2.75042 -31.943 0.0 0.0 0.0 0.0 0.0 
2447.6690939 771.518 -1551.76348604 -166.775228428 83.5157912534 164.731009144 0.624249 0.373157 2.13833 0.626762 0.236365 2.15773 0.636609 -0.198451 2.16155 0.630118 0.145333 2.16577 -15.8915 15.1963 -14.6369 -16.8276 37.4721 -8.13683 -0.0 0.0 -0.0 -4.15248 20.2964 -3.71989 -6.23649 -24.3693 64.3251 1.14295 -29.5169 0.301104 16.7242 0.283109 -2.11003 3.59843 -3.80981 23.2446 -0.0 0.0 -0.0 10.3676 1.52118 -20.4919 -11.6588 20.8347 -61.3796 1.56958 37.8632 -0.538383 44.9204 0.629616 5.55883 2.93164 -14.7548 -25.1515 0.0 0.0 0.0 14.9108 -8.00342 -1.33597 -17.323 0.317901 2.62926 12.8432 16.231 -1.82708 -29.2767 0.0 0.0 -0.0 0.0 -0.0 4.16155 0.462441 -6.11599 -5.29433 -0.181492 -0.791965 20.85 4.48815 2.89373 -36.9121 0.0 0.0 0.0 0.0 0.0 
